<?xml version="1.0" standalone="no"?>
<!DOCTYPE svg PUBLIC "-//W3C//DTD SVG 20010904//EN"
 "http://www.w3.org/TR/2001/REC-SVG-20010904/DTD/svg10.dtd">
<svg version="1.0" xmlns="http://www.w3.org/2000/svg"
 width="300.000000pt" height="300.000000pt" viewBox="0 0 300.000000 300.000000"
 preserveAspectRatio="xMidYMid meet">
<metadata>
Created by potrace 1.10, written by Peter Selinger 2001-2011
</metadata>
<g transform="translate(0.000000,300.000000) scale(0.100000,-0.100000)"
fill="#000000" stroke="none">
<path d="M1060 2338 c-140 -14 -249 -91 -286 -200 -22 -66 -16 -207 11 -263
37 -77 110 -135 276 -220 192 -97 232 -125 263 -178 30 -50 42 -129 28 -180
l-10 -37 64 0 c60 0 64 1 79 30 23 44 19 72 -4 34 -25 -42 -36 -47 -75 -40
l-34 6 0 68 c-1 133 -51 190 -256 293 -229 114 -263 141 -310 232 -21 42 -26
66 -26 125 0 40 5 93 11 116 12 50 67 115 117 140 l33 17 -23 -43 c-18 -35
-22 -59 -23 -133 0 -107 19 -153 87 -209 42 -34 159 -98 238 -130 73 -29 175
-97 223 -149 38 -40 45 -45 33 -22 -36 72 -102 119 -307 217 -216 103 -266
165 -257 310 3 40 12 88 22 106 35 67 139 108 234 91 37 -7 55 -17 84 -49 37
-41 51 -81 64 -188 l6 -53 32 7 c72 15 116 55 116 107 0 132 -180 218 -410
195z m262 -47 c52 -22 108 -67 108 -87 0 -8 5 -14 10 -14 6 0 10 -15 10 -32 0
-43 -36 -86 -77 -94 -28 -6 -33 -3 -37 17 -2 13 -10 51 -16 84 -7 33 -22 79
-35 103 -27 48 -24 49 37 23z"/>
<path d="M1796 1809 c-181 -20 -318 -161 -285 -293 6 -26 9 -69 7 -97 -4 -43
-1 -57 26 -102 l31 -52 190 -3 190 -2 -94 46 c-114 56 -184 120 -201 185 -16
57 -9 154 15 202 34 73 135 114 232 96 87 -17 130 -81 141 -209 l7 -75 35 3
c74 8 120 51 120 112 0 127 -189 214 -414 189z m278 -56 c19 -9 33 -20 30 -25
-3 -4 1 -8 9 -8 24 0 59 -47 64 -89 5 -35 2 -45 -20 -65 -52 -48 -74 -39 -83
35 -3 24 -14 68 -25 98 -28 80 -28 80 25 54z m-433 -85 c-6 -17 -11 -63 -11
-103 0 -93 31 -158 100 -211 77 -59 74 -64 -33 -64 -98 0 -99 1 -136 43 -21
23 -26 41 -32 125 -9 121 1 159 60 224 37 42 46 47 53 33 6 -10 6 -28 -1 -47z"/>
<path d="M803 1445 c-53 -23 -81 -84 -69 -150 l7 -35 81 0 c72 0 79 2 73 18
-11 28 -25 112 -25 148 0 39 -14 42 -67 19z m52 -52 c3 -21 8 -50 10 -65 5
-33 -19 -50 -65 -46 -41 3 -54 20 -47 65 7 43 42 83 73 83 19 0 24 -7 29 -37z"/>
<path d="M666 1175 c-23 -23 -21 -28 24 -81 23 -25 39 -51 37 -58 -2 -6 -20
-12 -40 -14 -28 -2 -37 1 -37 12 0 8 9 18 20 21 11 3 20 11 20 16 0 11 -16 4
-42 -19 -14 -11 -15 -18 -7 -29 14 -16 71 -17 87 -1 19 19 14 35 -23 77 -42
46 -45 71 -10 71 30 0 85 -26 85 -40 0 -5 -15 -14 -32 -19 l-33 -10 35 2 c43
2 48 30 10 58 -38 28 -74 33 -94 14z"/>
<path d="M1768 1179 c-27 -15 -22 -35 18 -79 20 -22 34 -47 32 -57 -3 -19 -39
-29 -66 -18 -15 5 -13 9 8 25 28 22 14 28 -15 6 -30 -22 -12 -46 33 -46 72 0
75 33 10 108 -16 18 -26 37 -23 43 11 17 64 9 92 -15 l28 -24 -35 -10 c-29 -9
-31 -10 -10 -11 14 0 31 3 39 8 43 27 -66 96 -111 70z"/>
<path d="M1283 1128 c-6 -7 -13 -24 -17 -38 -6 -26 -61 -60 -97 -60 -11 0 -24
10 -29 23 -5 12 -9 20 -10 17 -1 -3 -3 -13 -5 -23 -2 -11 -7 -22 -11 -25 -4
-4 -4 1 -1 11 5 13 3 17 -5 13 -56 -23 -89 -29 -100 -18 -9 9 -8 12 5 12 9 0
17 7 17 15 0 20 -9 19 -45 -5 -32 -21 -75 -27 -75 -9 0 10 -24 39 -33 39 -3 0
-7 -8 -10 -19 -6 -23 -57 -38 -68 -19 -5 7 -16 13 -26 14 -14 1 -23 -12 -35
-53 -8 -29 -12 -56 -7 -59 5 -3 14 16 20 41 6 25 16 48 22 52 6 3 7 1 3 -5
-10 -16 37 -16 81 0 28 10 35 10 45 -5 11 -14 19 -15 48 -7 22 6 38 6 44 0 13
-13 66 -13 86 0 9 6 17 5 22 -3 5 -9 10 -9 19 0 8 8 18 9 34 1 15 -7 29 -7 42
1 14 7 23 7 31 -1 9 -9 15 -9 23 -1 9 9 16 9 30 0 14 -9 26 -9 49 0 17 7 32 7
36 2 7 -12 51 -11 59 2 4 5 12 8 18 6 7 -2 19 -1 28 4 11 6 21 4 29 -6 9 -11
23 -13 52 -8 l40 6 -17 -26 c-9 -15 -14 -34 -11 -43 8 -21 29 -6 23 17 -3 11
-1 17 4 13 5 -3 9 4 9 15 0 24 18 36 47 33 11 -2 24 1 27 7 4 6 -7 9 -25 9
-17 -1 -34 5 -39 12 -9 15 -30 5 -26 -13 1 -7 1 -9 -1 -5 -3 4 -15 2 -29 -4
-18 -9 -30 -8 -48 2 -13 7 -29 9 -35 6 -6 -4 -11 -2 -11 4 0 6 -13 1 -29 -11
-37 -27 -65 -19 -59 16 3 14 1 25 -3 25 -5 0 -9 -8 -9 -19 0 -11 -12 -23 -29
-31 -50 -20 -64 3 -36 56 17 33 19 54 6 54 -5 0 -13 -6 -18 -12z"/>
<path d="M2106 1132 c-13 -21 -17 -82 -6 -102 10 -18 17 -21 43 -16 40 8 45 8
83 0 20 -4 43 0 64 11 44 23 33 28 -18 9 -23 -10 -49 -13 -59 -9 -16 6 -15 8
6 16 17 7 21 13 14 20 -7 7 -22 2 -48 -15 -64 -44 -88 -29 -60 37 8 20 15 41
15 47 0 12 -27 14 -34 2z"/>
<path d="M2009 1075 c-1 -3 -2 -8 -3 -12 -5 -30 -56 -47 -70 -24 -9 14 -85 9
-90 -6 -7 -16 6 -17 22 -1 10 10 15 10 22 -1 7 -12 11 -12 24 -2 10 8 16 9 16
3 0 -16 37 -24 59 -13 13 7 22 8 26 1 9 -15 39 -12 61 6 19 15 19 16 -1 8 -45
-16 -60 -11 -57 19 2 15 1 27 -2 27 -3 0 -7 -2 -7 -5z"/>
<path d="M1564 912 c-108 -8 -126 -146 -32 -248 48 -52 113 -81 215 -95 144
-20 299 12 389 80 58 43 110 138 120 216 l6 50 -91 0 -90 0 7 -25 c11 -40 7
-133 -8 -171 -52 -133 -250 -182 -369 -92 -44 34 -80 115 -95 211 l-11 77 -41
-3z m22 -59 c3 -21 13 -63 22 -93 9 -30 15 -58 14 -62 -1 -5 1 -8 6 -8 9 0 36
-59 29 -66 -21 -22 -144 87 -154 137 -10 50 1 99 22 99 8 0 15 7 15 15 0 8 9
15 20 15 14 0 21 -9 26 -37z m636 15 c6 -37 -12 -93 -38 -121 -13 -14 -24 -29
-24 -33 0 -4 -12 -17 -27 -30 -31 -26 -51 -18 -34 14 11 20 31 171 25 183 -2
3 19 6 46 8 44 2 49 0 52 -21z"/>
<path d="M667 842 c1 -8 3 -19 3 -25 0 -7 4 -6 10 3 8 12 12 13 19 2 6 -11 10
-10 15 3 9 26 7 42 -4 25 -8 -12 -10 -12 -10 -1 0 10 -3 11 -14 2 -8 -7 -16
-8 -18 -4 -3 4 -3 2 -1 -5z"/>
<path d="M780 835 c0 -17 5 -25 18 -25 14 0 15 2 2 10 -13 9 -13 10 0 10 12 0
13 2 1 9 -11 7 -11 9 0 14 10 4 9 6 -3 6 -13 1 -18 -7 -18 -24z"/>
<path d="M964 845 c-4 -9 -2 -21 4 -27 15 -15 44 -1 40 19 -4 23 -36 29 -44 8z"/>
<path d="M1070 835 c0 -27 21 -30 31 -5 8 19 2 30 -17 30 -8 0 -14 -10 -14
-25z"/>
<path d="M1264 845 c-4 -9 -2 -21 4 -27 15 -15 44 -1 40 19 -4 23 -36 29 -44
8z"/>
<path d="M1371 838 c-1 -22 4 -28 19 -28 15 0 20 6 19 28 -2 23 -2 24 -6 5 -2
-13 -8 -23 -13 -23 -5 0 -11 10 -13 23 -4 19 -4 18 -6 -5z"/>
</g>
</svg>
